<svg width="18" height="18" viewBox="0 0 18 18" fill="none" xmlns="http://www.w3.org/2000/svg">
<path d="M7.19832 0.629077C7.19927 0.307121 7.46206 0.0490723 7.78402 0.0490723C8.58893 0.0490723 9.39384 0.0490723 10.1987 0.0490723C10.5394 0.0490723 10.8095 0.336796 10.8082 0.67746C10.801 2.63827 11.1965 4.83594 9.77318 6.38354C8.34268 7.90966 6.93078 9.49898 5.18684 10.6744C5.08909 10.7403 4.9731 10.7733 4.85523 10.7716C3.43252 10.7506 2.01242 10.7565 0.59017 10.7582C0.264229 10.7586 0 10.4944 0 10.1685V7.82077C0 7.49746 0.260133 7.23418 0.58344 7.23405C2.10906 7.23343 3.63708 7.28743 5.162 7.21764C6.12201 7.23338 7.18431 6.54092 7.18038 5.50222C7.27179 3.87784 7.19354 2.25346 7.19832 0.629077Z" fill="url(#paint0_linear_24_168678)"/>
<path d="M13.5854 7.32022C14.848 7.1573 16.1224 7.23742 17.3933 7.23976C17.7256 7.24037 17.9989 7.50795 17.9978 7.84022C17.9952 8.62484 17.9926 9.40946 17.9899 10.1941C17.9889 10.5163 17.7296 10.7782 17.4074 10.7795C15.7865 10.7863 14.163 10.7425 12.5427 10.8022C11.5394 10.7825 10.8116 11.8448 10.8273 12.7812C10.7889 14.3105 10.8249 15.8398 10.8169 17.369C10.8153 17.6918 10.5522 17.9511 10.2294 17.9511C9.43398 17.9511 8.63736 17.9511 7.84189 17.9511C7.50805 17.9511 7.2408 17.6744 7.23965 17.3406C7.23444 15.8228 7.06827 14.2767 7.48524 12.8046C7.4941 12.7734 7.50579 12.7428 7.52023 12.7137C8.05538 11.6345 8.997 10.8378 9.81222 9.97598C10.8981 8.89007 11.9526 7.53269 13.5854 7.32022Z" fill="url(#paint1_linear_24_168678)"/>
<defs>
<linearGradient id="paint0_linear_24_168678" x1="5.42671" y1="3.53576" x2="5.42671" y2="26.6015" gradientUnits="userSpaceOnUse">
<stop/>
<stop offset="1" stop-opacity="0"/>
</linearGradient>
<linearGradient id="paint1_linear_24_168678" x1="12.6012" y1="10.7072" x2="12.6012" y2="33.7897" gradientUnits="userSpaceOnUse">
<stop/>
<stop offset="1" stop-opacity="0"/>
</linearGradient>
</defs>
</svg>
