<svg width="24" height="24" viewBox="0 0 24 24" fill="none" xmlns="http://www.w3.org/2000/svg">
<path d="M14.2753 3.55624C14.3008 3.46105 14.3447 3.37182 14.4047 3.29363C14.4647 3.21545 14.5394 3.14984 14.6248 3.10056C14.7101 3.05129 14.8043 3.0193 14.902 3.00644C14.9996 2.99358 15.0989 3.0001 15.1941 3.02561C16.5844 3.38838 17.853 4.11521 18.869 5.13127C19.8851 6.14732 20.6119 7.41586 20.9747 8.80624C21.0002 8.9014 21.0067 9.00067 20.9939 9.09835C20.981 9.19604 20.949 9.29023 20.8997 9.37555C20.8505 9.46087 20.7849 9.53565 20.7067 9.59561C20.6285 9.65556 20.5393 9.69953 20.4441 9.72499C20.3807 9.74163 20.3155 9.75013 20.25 9.7503C20.0847 9.75029 19.9241 9.6957 19.793 9.595C19.662 9.49429 19.5679 9.35312 19.5253 9.19342C19.2295 8.05841 18.6363 7.02284 17.8069 6.19344C16.9775 5.36405 15.9419 4.77085 14.8069 4.47499C14.7116 4.44963 14.6223 4.40574 14.544 4.34582C14.4657 4.28591 14.4 4.21115 14.3506 4.12582C14.3013 4.04048 14.2692 3.94626 14.2563 3.84852C14.2433 3.75079 14.2498 3.65147 14.2753 3.55624ZM14.0569 7.47499C15.3497 7.81999 16.1803 8.65061 16.5253 9.94342C16.5679 10.1031 16.662 10.2443 16.793 10.345C16.9241 10.4457 17.0847 10.5003 17.25 10.5003C17.3155 10.5001 17.3807 10.4916 17.4441 10.475C17.5393 10.4495 17.6285 10.4056 17.7067 10.3456C17.7849 10.2856 17.8505 10.2109 17.8997 10.1256C17.949 10.0402 17.981 9.94604 17.9939 9.84835C18.0067 9.75067 18.0002 9.6514 17.9747 9.55624C17.4947 7.75999 16.2403 6.50561 14.4441 6.02561C14.3489 6.00019 14.2497 5.99376 14.152 6.00669C14.0544 6.01962 13.9602 6.05166 13.8749 6.10098C13.7897 6.15029 13.7149 6.21592 13.655 6.29412C13.5951 6.37231 13.5512 6.46154 13.5258 6.5567C13.5004 6.65187 13.4939 6.75111 13.5069 6.84877C13.5198 6.94642 13.5518 7.04057 13.6012 7.12584C13.6505 7.21111 13.7161 7.28583 13.7943 7.34574C13.8725 7.40564 13.9617 7.44956 14.0569 7.47499ZM21.7388 16.414C21.5716 17.6844 20.9477 18.8504 19.9837 19.6944C19.0196 20.5384 17.7813 21.0026 16.5 21.0003C9.05626 21.0003 3.00001 14.944 3.00001 7.5003C2.99771 6.21901 3.4619 4.98069 4.30588 4.01664C5.14986 3.05258 6.31592 2.42871 7.58626 2.26155C7.9075 2.22232 8.2328 2.28804 8.51362 2.4489C8.79444 2.60975 9.0157 2.85711 9.14438 3.15405L11.1244 7.57436V7.58561C11.2229 7.81291 11.2636 8.06107 11.2428 8.30793C11.222 8.55479 11.1404 8.79266 11.0053 9.0003C10.9884 9.02561 10.9706 9.04905 10.9519 9.07249L9.00001 11.3862C9.7022 12.8131 11.1947 14.2925 12.6403 14.9965L14.9222 13.055C14.9446 13.0361 14.9681 13.0186 14.9925 13.0025C15.2 12.8641 15.4387 12.7796 15.687 12.7567C15.9353 12.7338 16.1854 12.7732 16.4147 12.8712L16.4269 12.8769L20.8434 14.8559C21.1409 14.9841 21.3889 15.2052 21.5503 15.4861C21.7116 15.7669 21.7778 16.0925 21.7388 16.414ZM20.25 16.2265C20.25 16.2265 20.2434 16.2265 20.2397 16.2265L15.8334 14.2531L13.5506 16.1947C13.5285 16.2134 13.5053 16.231 13.4813 16.2472C13.2654 16.3912 13.0159 16.4767 12.7571 16.4955C12.4983 16.5142 12.239 16.4655 12.0047 16.354C10.2488 15.5056 8.49845 13.7684 7.64907 12.0312C7.5366 11.7986 7.48613 11.5409 7.50255 11.283C7.51898 11.0251 7.60174 10.7758 7.74282 10.5594C7.75872 10.5339 7.77659 10.5098 7.79626 10.4872L9.75001 8.17061L7.78126 3.76436C7.78089 3.76062 7.78089 3.75685 7.78126 3.75311C6.87212 3.8717 6.03739 4.31764 5.43339 5.00741C4.8294 5.69717 4.49755 6.58346 4.50001 7.5003C4.50348 10.6818 5.76888 13.7321 8.01856 15.9817C10.2682 18.2314 13.3185 19.4968 16.5 19.5003C17.4163 19.5034 18.3023 19.1728 18.9925 18.5701C19.6827 17.9674 20.1297 17.134 20.25 16.2256V16.2265Z" fill="#64717E"/>
</svg>
