<svg width="43" height="46" viewBox="0 0 43 46" fill="none" xmlns="http://www.w3.org/2000/svg">
<path d="M42.1886 44.796C37.2211 44.6989 32.2849 44.8398 27.5339 42.9658C26.0866 42.3949 21.0807 40.7006 20.6177 38.9157C19.3552 34.0488 32.2085 31.4949 34.848 30.4442C41.6348 27.7424 44.9952 23.5203 37.298 18.277C28.995 12.6212 16.9269 7.58332 7.1414 5.67092C4.55264 5.16499 -0.884579 2.43076 2.71424 6.34986C4.00638 7.75701 9.32531 13.7909 5.67219 8.71326C5.34667 8.26082 0.989461 3.77325 1.1946 3.58488C1.69114 3.12892 5.47242 3.47995 6.42954 3.18009C8.08842 2.66038 9.3996 2.62969 10.7066 1.42947" stroke="#E5E7EB" stroke-width="1.59711" stroke-linecap="round"/>
</svg>