<svg width="21" height="20" viewBox="0 0 21 20" fill="none" xmlns="http://www.w3.org/2000/svg">
<path d="M17.5961 8.10692L11.3461 2.21005C11.343 2.20738 11.3402 2.20451 11.3375 2.20145C11.1074 1.99218 10.8075 1.87622 10.4965 1.87622C10.1854 1.87622 9.88558 1.99218 9.65547 2.20145L9.64688 2.21005L3.40391 8.10692C3.27656 8.22402 3.17491 8.36628 3.10538 8.5247C3.03586 8.68311 2.99997 8.85424 3 9.02724V16.2499C3 16.5814 3.1317 16.8994 3.36612 17.1338C3.60054 17.3682 3.91848 17.4999 4.25 17.4999H8C8.33152 17.4999 8.64946 17.3682 8.88388 17.1338C9.1183 16.8994 9.25 16.5814 9.25 16.2499V12.4999H11.75V16.2499C11.75 16.5814 11.8817 16.8994 12.1161 17.1338C12.3505 17.3682 12.6685 17.4999 13 17.4999H16.75C17.0815 17.4999 17.3995 17.3682 17.6339 17.1338C17.8683 16.8994 18 16.5814 18 16.2499V9.02724C18 8.85424 17.9641 8.68311 17.8946 8.5247C17.8251 8.36628 17.7234 8.22402 17.5961 8.10692ZM16.75 16.2499H13V12.4999C13 12.1684 12.8683 11.8504 12.6339 11.616C12.3995 11.3816 12.0815 11.2499 11.75 11.2499H9.25C8.91848 11.2499 8.60054 11.3816 8.36612 11.616C8.1317 11.8504 8 12.1684 8 12.4999V16.2499H4.25V9.02724L4.25859 9.01942L10.5 3.12489L16.7422 9.01786L16.7508 9.02567L16.75 16.2499Z" fill="#212121"/>
</svg>
